<?xml version="1.0" standalone="no"?>
<!DOCTYPE svg PUBLIC "-//W3C//DTD SVG 20010904//EN"
 "http://www.w3.org/TR/2001/REC-SVG-20010904/DTD/svg10.dtd">
<svg version="1.0" xmlns="http://www.w3.org/2000/svg"
 width="1024.000000pt" height="1024.000000pt" viewBox="0 0 1024.000000 1024.000000"
 preserveAspectRatio="xMidYMid meet">
<metadata>
Created by potrace 1.16, written by Peter Selinger 2001-2019
</metadata>
<g transform="translate(0.000000,1024.000000) scale(0.100000,-0.100000)"
fill="#000000" stroke="none">
<path d="M5033 8732 c-107 -38 -174 -106 -208 -211 -39 -119 20 -272 130 -336
45 -27 45 -27 45 -256 0 -228 0 -228 -782 -231 -783 -3 -783 -3 -863 -30 -169
-58 -300 -165 -373 -306 -82 -159 -77 -73 -77 -1192 0 -1097 -3 -1040 65
-1185 65 -141 166 -242 307 -306 83 -38 138 -51 261 -58 102 -6 102 -6 105
-309 2 -304 2 -304 30 -328 41 -35 86 -32 134 9 21 17 190 166 375 330 337
297 337 297 1448 297 1254 0 1196 -3 1358 76 163 80 279 224 328 409 18 66 19
126 19 1065 0 1119 6 1033 -78 1193 -73 142 -201 247 -372 305 -80 27 -80 27
-862 30 -783 3 -783 3 -783 231 0 229 0 229 45 255 84 50 145 160 145 262 0
193 -218 350 -397 286z m1154 -2069 c178 -83 220 -326 81 -465 -110 -110 -271
-116 -386 -13 -68 61 -96 127 -95 225 0 87 16 132 70 191 43 48 99 78 162 88
63 10 107 3 168 -26z m-1901 3 c66 -31 120 -86 152 -154 58 -128 -4 -292 -139
-367 -47 -26 -64 -30 -129 -30 -58 0 -85 5 -118 23 -141 75 -209 245 -150 374
35 76 70 112 140 147 80 40 167 43 244 7z m320 -846 c14 -6 49 -31 77 -56 64
-58 153 -106 247 -136 62 -19 96 -23 195 -22 104 0 130 4 200 28 99 34 169 73
233 131 83 74 138 81 187 23 34 -41 34 -100 -1 -151 -56 -83 -253 -196 -414
-238 -117 -31 -309 -31 -425 0 -174 46 -376 168 -421 253 -32 61 -7 145 50
168 29 12 40 12 72 0z"/>
<path d="M2127 3160 c-70 -12 -169 -62 -216 -109 -90 -90 -139 -244 -148 -466
-14 -356 73 -555 281 -639 41 -16 74 -20 171 -21 112 0 124 2 182 29 108 50
174 141 208 289 22 95 18 98 -104 95 -96 -3 -96 -3 -108 -51 -16 -66 -47 -112
-88 -131 -36 -17 -126 -23 -166 -11 -47 14 -89 67 -112 140 -19 62 -22 92 -22
260 0 216 12 278 68 341 99 114 286 68 313 -77 11 -56 18 -59 120 -59 116 0
122 7 99 105 -40 173 -146 278 -305 304 -73 12 -104 12 -173 1z"/>
<path d="M7055 3164 c-205 -29 -343 -151 -391 -346 -21 -87 -29 -322 -16 -438
21 -172 74 -280 179 -366 71 -58 148 -85 259 -91 110 -7 174 7 267 55 111 58
192 171 224 314 23 106 23 408 -1 503 -46 188 -139 297 -294 345 -61 19 -175
31 -227 24z m170 -240 c47 -22 91 -82 112 -153 23 -81 23 -383 -1 -463 -31
-107 -110 -167 -219 -168 -73 0 -113 17 -159 68 -60 67 -73 126 -73 337 0 208
12 265 70 333 60 70 178 90 270 46z"/>
<path d="M2806 3125 c-3 -9 -6 -274 -6 -590 0 -478 2 -574 14 -584 9 -8 48
-11 112 -9 99 3 99 3 102 256 2 252 2 252 183 250 180 -3 180 -3 179 -242 0
-167 3 -242 11 -252 16 -20 202 -20 218 0 8 9 10 174 9 597 -3 584 -3 584
-107 587 -69 2 -108 -1 -117 -9 -12 -10 -14 -53 -14 -238 1 -226 1 -226 -179
-229 -181 -2 -181 -2 -183 235 -3 238 -3 238 -109 241 -91 2 -108 0 -113 -13z"/>
<path d="M4122 3123 c-26 -47 -328 -1088 -334 -1151 -3 -27 -3 -27 97 -30 70
-2 105 1 117 10 10 7 30 60 46 118 29 105 29 105 214 108 185 2 185 2 213
-104 15 -58 35 -112 43 -120 11 -11 37 -14 116 -12 101 3 101 3 99 38 -4 67
-283 1042 -321 1120 -17 35 -17 35 -149 38 -118 2 -133 1 -141 -15z m158 -270
c0 -16 25 -124 55 -242 30 -118 53 -217 51 -220 -2 -3 -61 -5 -131 -3 -114 3
-126 5 -120 20 14 35 115 428 115 450 0 13 6 22 15 22 10 0 15 -10 15 -27z"/>
<path d="M4714 3127 c-3 -8 -4 -54 -2 -103 3 -89 3 -89 136 -94 133 -5 133 -5
132 -484 0 -344 3 -482 11 -492 8 -10 38 -14 109 -14 71 0 101 4 109 14 8 10
11 148 11 492 -1 479 -1 479 127 482 86 2 130 7 135 15 9 14 11 158 2 181 -5
14 -49 16 -385 16 -307 0 -381 -3 -385 -13z"/>
<path d="M5667 3134 c-4 -4 -7 -272 -7 -595 0 -526 2 -587 16 -593 26 -10 447
-7 504 4 126 24 227 97 271 195 34 76 33 202 -3 270 -27 51 -70 97 -122 129
-28 18 -28 18 1 36 154 93 165 373 19 481 -22 16 -65 39 -96 51 -51 21 -75 23
-315 26 -143 2 -264 0 -268 -4z m480 -215 c55 -21 81 -126 48 -190 -29 -55
-67 -69 -190 -69 -110 0 -110 0 -108 137 1 76 2 138 2 138 15 4 233 -10 248
-16z m6 -483 c18 -7 45 -28 60 -45 23 -27 27 -42 27 -91 0 -52 -4 -64 -30 -93
-38 -44 -89 -57 -217 -57 -98 0 -98 0 -98 150 0 150 0 150 113 150 72 0 124
-5 145 -14z"/>
<path d="M7682 3128 c-15 -15 -16 -151 -2 -179 10 -17 22 -19 143 -19 133 0
133 0 134 -484 1 -267 4 -490 8 -495 9 -16 198 -14 213 1 9 9 12 133 12 495 0
483 0 483 135 483 157 0 148 -8 143 125 -3 80 -3 80 -388 83 -292 2 -389 -1
-398 -10z"/>
</g>
</svg>
